<svg width="81.783" height="14.886" viewBox="0 0 81.783 14.886" xmlns="http://www.w3.org/2000/svg">
    <g id="svgGroup" stroke-linecap="round" fill-rule="evenodd" font-size="9pt" stroke="#00000084" stroke-width="0.25mm"
        fill="#0000007c" style="stroke:#00000084;stroke-width:0.25mm;fill:#0000007c">
        <path
            d="M 81.783 9.864 L 81.783 10.134 L 75.015 10.134 L 75.015 9.54 L 81.387 9.54 L 81.144 9.774 Q 81.144 8.737 81.001 7.973 A 4.92 4.92 0 0 0 80.807 7.232 Q 80.469 6.282 79.835 5.868 A 2.514 2.514 0 0 0 78.866 5.499 A 3.353 3.353 0 0 0 78.309 5.454 A 3.233 3.233 0 0 0 77.488 5.554 A 2.62 2.62 0 0 0 76.757 5.868 Q 76.095 6.282 75.731 7.227 A 4.612 4.612 0 0 0 75.516 7.991 Q 75.441 8.369 75.403 8.815 A 11.503 11.503 0 0 0 75.366 9.774 L 75.366 9.909 Q 75.366 10.998 75.559 11.792 A 4.214 4.214 0 0 0 75.785 12.474 A 3.253 3.253 0 0 0 76.214 13.203 A 2.51 2.51 0 0 0 77 13.865 A 3.46 3.46 0 0 0 77.972 14.204 Q 78.388 14.287 78.866 14.292 A 5.942 5.942 0 0 0 78.93 14.292 A 5.837 5.837 0 0 0 79.897 14.209 A 6.572 6.572 0 0 0 80.059 14.18 Q 80.64 14.067 81.333 13.851 L 81.333 14.463 A 9.674 9.674 0 0 1 80.556 14.684 A 7.872 7.872 0 0 1 80.082 14.783 Q 79.488 14.886 78.894 14.886 A 5.758 5.758 0 0 1 77.847 14.795 Q 77.208 14.677 76.686 14.405 A 3.605 3.605 0 0 1 76.635 14.378 A 3.111 3.111 0 0 1 75.454 13.233 A 4.091 4.091 0 0 1 75.208 12.762 A 5.029 5.029 0 0 1 74.9 11.793 Q 74.718 10.955 74.718 9.864 Q 74.718 8.091 75.173 6.989 A 4.267 4.267 0 0 1 75.581 6.217 Q 75.908 5.735 76.342 5.434 A 2.667 2.667 0 0 1 76.433 5.373 A 3.278 3.278 0 0 1 77.853 4.885 A 4.138 4.138 0 0 1 78.309 4.86 A 3.806 3.806 0 0 1 79.252 4.972 A 2.997 2.997 0 0 1 80.168 5.373 A 2.771 2.771 0 0 1 80.938 6.15 Q 81.185 6.515 81.365 6.989 Q 81.669 7.79 81.752 8.945 A 12.828 12.828 0 0 1 81.783 9.864 Z M 13.437 9.558 L 16.38 9.207 L 16.407 9.801 L 13.419 10.152 Q 12.195 10.291 11.589 10.729 A 1.735 1.735 0 0 0 11.471 10.823 A 1.691 1.691 0 0 0 10.905 11.855 A 2.475 2.475 0 0 0 10.872 12.267 A 2.798 2.798 0 0 0 10.93 12.854 Q 11.008 13.221 11.194 13.496 A 1.55 1.55 0 0 0 11.421 13.761 A 1.726 1.726 0 0 0 12.054 14.129 Q 12.48 14.274 13.059 14.274 A 3.699 3.699 0 0 0 14.389 14.021 A 4.355 4.355 0 0 0 14.634 13.919 A 3.29 3.29 0 0 0 15.546 13.293 A 4.381 4.381 0 0 0 16.029 12.744 L 16.029 8.01 Q 16.029 7.365 15.902 6.907 A 2.04 2.04 0 0 0 15.714 6.44 Q 15.399 5.886 14.801 5.67 Q 14.297 5.488 13.611 5.459 A 6.302 6.302 0 0 0 13.347 5.454 A 6.924 6.924 0 0 0 12.775 5.479 Q 12.464 5.505 12.119 5.558 A 7.32 7.32 0 0 0 11.082 5.796 A 8.456 8.456 0 0 0 10.728 5.913 L 10.728 5.301 Q 11.295 5.085 12.002 4.973 A 9.059 9.059 0 0 1 12.92 4.872 A 7.653 7.653 0 0 1 13.347 4.86 A 6.33 6.33 0 0 1 14.145 4.908 Q 14.554 4.96 14.903 5.069 A 3.485 3.485 0 0 1 15.129 5.148 Q 15.867 5.436 16.254 6.125 Q 16.641 6.813 16.641 8.01 L 16.641 14.724 L 16.101 14.724 L 16.047 13.572 L 15.975 13.572 A 3.349 3.349 0 0 1 14.918 14.419 A 3.985 3.985 0 0 1 14.706 14.522 A 4.029 4.029 0 0 1 13.116 14.867 A 4.631 4.631 0 0 1 13.032 14.868 Q 11.736 14.868 10.971 14.202 A 2.169 2.169 0 0 1 10.263 12.944 A 3.233 3.233 0 0 1 10.206 12.321 Q 10.206 11.106 10.98 10.427 A 2.763 2.763 0 0 1 11.68 9.99 Q 12.379 9.677 13.437 9.558 Z M 3.87 8.172 L 0.468 8.172 L 0.468 7.578 L 3.627 7.578 A 9.843 9.843 0 0 0 4.502 7.542 Q 4.921 7.504 5.276 7.428 A 4.152 4.152 0 0 0 5.85 7.263 A 2.918 2.918 0 0 0 6.441 6.968 A 2.078 2.078 0 0 0 7.083 6.314 A 2.524 2.524 0 0 0 7.385 5.552 Q 7.459 5.225 7.469 4.847 A 4.48 4.48 0 0 0 7.47 4.734 A 3.878 3.878 0 0 0 7.39 3.918 Q 7.282 3.419 7.03 3.052 A 2.006 2.006 0 0 0 6.511 2.534 A 2.871 2.871 0 0 0 5.785 2.185 Q 5.056 1.942 3.955 1.888 A 13.484 13.484 0 0 0 3.294 1.872 A 25.364 25.364 0 0 0 2.684 1.879 Q 2.203 1.891 1.809 1.922 Q 1.179 1.971 0.612 2.079 L 0.612 14.076 Q 1.188 14.157 1.773 14.189 Q 2.358 14.22 3.033 14.22 Q 4.842 14.22 5.895 13.883 A 3.915 3.915 0 0 0 6.534 13.618 Q 6.879 13.435 7.124 13.197 A 2.001 2.001 0 0 0 7.398 12.87 A 2.575 2.575 0 0 0 7.762 12 Q 7.848 11.618 7.848 11.169 Q 7.848 9.639 6.881 8.906 A 3.013 3.013 0 0 0 6.025 8.466 Q 5.163 8.172 3.87 8.172 Z M 0 14.634 L 0 1.584 Q 0.513 1.485 1.013 1.413 Q 1.512 1.341 2.075 1.31 Q 2.637 1.278 3.303 1.278 A 12.318 12.318 0 0 1 4.386 1.323 Q 4.913 1.369 5.359 1.465 A 5.361 5.361 0 0 1 6.044 1.656 Q 7.101 2.034 7.596 2.799 Q 8.091 3.564 8.091 4.734 A 3.861 3.861 0 0 1 7.941 5.823 A 3.519 3.519 0 0 1 7.812 6.188 A 2.55 2.55 0 0 1 7.02 7.218 A 3.097 3.097 0 0 1 6.894 7.313 A 2.936 2.936 0 0 1 6.25 7.652 Q 5.936 7.774 5.559 7.853 A 5.973 5.973 0 0 1 5.175 7.92 L 5.202 7.785 Q 6.324 7.901 7.042 8.325 A 2.554 2.554 0 0 1 7.708 8.883 A 3.264 3.264 0 0 1 8.439 10.572 A 4.373 4.373 0 0 1 8.478 11.169 A 4.483 4.483 0 0 1 8.407 11.984 A 3.417 3.417 0 0 1 8.177 12.744 A 2.708 2.708 0 0 1 7.303 13.829 A 3.239 3.239 0 0 1 7.222 13.887 Q 6.66 14.283 5.81 14.511 A 6.997 6.997 0 0 1 5.53 14.58 A 8.653 8.653 0 0 1 4.614 14.732 Q 3.891 14.814 3.015 14.814 Q 2.493 14.814 2.016 14.796 Q 1.539 14.778 1.049 14.738 Q 0.558 14.697 0 14.634 Z M 44.577 14.886 Q 43.056 14.886 41.909 14.202 A 3.987 3.987 0 0 1 40.673 13.027 A 5.642 5.642 0 0 1 40.122 12.015 Q 39.483 10.512 39.483 8.064 Q 39.483 6.367 39.79 5.126 A 6.644 6.644 0 0 1 40.126 4.104 A 5.594 5.594 0 0 1 40.719 3.037 A 3.955 3.955 0 0 1 41.917 1.922 A 4.867 4.867 0 0 1 43.838 1.285 A 6.17 6.17 0 0 1 44.577 1.242 A 5.816 5.816 0 0 1 45.989 1.407 A 4.662 4.662 0 0 1 47.25 1.922 A 3.953 3.953 0 0 1 48.469 3.074 A 5.626 5.626 0 0 1 49.032 4.104 Q 49.671 5.607 49.671 8.064 A 15.213 15.213 0 0 1 49.595 9.631 Q 49.516 10.395 49.354 11.036 A 6.607 6.607 0 0 1 49.028 12.015 Q 48.384 13.518 47.237 14.202 A 4.847 4.847 0 0 1 45.31 14.843 A 6.134 6.134 0 0 1 44.577 14.886 Z M 25.182 5.121 L 25.182 5.733 Q 24.705 5.589 24.228 5.522 A 6.776 6.776 0 0 0 23.533 5.458 A 5.944 5.944 0 0 0 23.31 5.454 A 5.919 5.919 0 0 0 22.456 5.512 Q 21.999 5.579 21.617 5.722 A 3.18 3.18 0 0 0 21.285 5.868 A 2.472 2.472 0 0 0 20.282 6.821 A 3.314 3.314 0 0 0 20.07 7.241 A 4.364 4.364 0 0 0 19.831 8.016 Q 19.743 8.424 19.702 8.91 A 10.841 10.841 0 0 0 19.665 9.828 A 11.841 11.841 0 0 0 19.705 10.837 Q 19.746 11.317 19.83 11.722 A 4.769 4.769 0 0 0 20.039 12.456 A 3.375 3.375 0 0 0 20.377 13.126 A 2.328 2.328 0 0 0 21.146 13.865 A 3.017 3.017 0 0 0 22.049 14.204 Q 22.426 14.284 22.86 14.291 A 5.259 5.259 0 0 0 22.95 14.292 A 5.008 5.008 0 0 0 23.509 14.259 A 6.356 6.356 0 0 0 23.976 14.189 Q 24.525 14.085 25.182 13.851 L 25.182 14.463 A 6.991 6.991 0 0 1 24.204 14.747 A 6.317 6.317 0 0 1 24.026 14.783 Q 23.454 14.886 22.887 14.886 A 4.989 4.989 0 0 1 21.912 14.795 A 3.568 3.568 0 0 1 20.79 14.378 A 2.926 2.926 0 0 1 19.814 13.424 A 4.045 4.045 0 0 1 19.471 12.762 A 5.269 5.269 0 0 1 19.195 11.836 Q 19.095 11.356 19.051 10.792 A 12.038 12.038 0 0 1 19.017 9.864 A 10.69 10.69 0 0 1 19.075 8.714 Q 19.136 8.148 19.263 7.674 A 4.71 4.71 0 0 1 19.507 6.971 A 3.637 3.637 0 0 1 20.069 6.068 A 3.012 3.012 0 0 1 20.952 5.364 A 4.139 4.139 0 0 1 22.051 4.978 Q 22.621 4.86 23.292 4.86 A 7.326 7.326 0 0 1 24.001 4.895 A 8.317 8.317 0 0 1 24.246 4.923 Q 24.741 4.986 25.182 5.121 Z M 73.557 5.121 L 73.557 5.733 Q 73.08 5.589 72.603 5.522 A 6.776 6.776 0 0 0 71.908 5.458 A 5.944 5.944 0 0 0 71.685 5.454 A 5.919 5.919 0 0 0 70.831 5.512 Q 70.374 5.579 69.992 5.722 A 3.18 3.18 0 0 0 69.66 5.868 A 2.472 2.472 0 0 0 68.657 6.821 A 3.314 3.314 0 0 0 68.445 7.241 A 4.364 4.364 0 0 0 68.206 8.016 Q 68.118 8.424 68.077 8.91 A 10.841 10.841 0 0 0 68.04 9.828 A 11.841 11.841 0 0 0 68.08 10.837 Q 68.121 11.317 68.205 11.722 A 4.769 4.769 0 0 0 68.414 12.456 A 3.375 3.375 0 0 0 68.752 13.126 A 2.328 2.328 0 0 0 69.521 13.865 A 3.017 3.017 0 0 0 70.424 14.204 Q 70.801 14.284 71.235 14.291 A 5.259 5.259 0 0 0 71.325 14.292 A 5.008 5.008 0 0 0 71.884 14.259 A 6.356 6.356 0 0 0 72.351 14.189 Q 72.9 14.085 73.557 13.851 L 73.557 14.463 A 6.991 6.991 0 0 1 72.579 14.747 A 6.317 6.317 0 0 1 72.401 14.783 Q 71.829 14.886 71.262 14.886 A 4.989 4.989 0 0 1 70.287 14.795 A 3.568 3.568 0 0 1 69.165 14.378 A 2.926 2.926 0 0 1 68.189 13.424 A 4.045 4.045 0 0 1 67.846 12.762 A 5.269 5.269 0 0 1 67.57 11.836 Q 67.47 11.356 67.426 10.792 A 12.038 12.038 0 0 1 67.392 9.864 A 10.69 10.69 0 0 1 67.45 8.714 Q 67.511 8.148 67.638 7.674 A 4.71 4.71 0 0 1 67.882 6.971 A 3.637 3.637 0 0 1 68.444 6.068 A 3.012 3.012 0 0 1 69.327 5.364 A 4.139 4.139 0 0 1 70.426 4.978 Q 70.996 4.86 71.667 4.86 A 7.326 7.326 0 0 1 72.376 4.895 A 8.317 8.317 0 0 1 72.621 4.923 Q 73.116 4.986 73.557 5.121 Z M 53.46 14.724 L 52.848 14.724 L 52.848 3.087 A 5.25 5.25 0 0 1 52.896 2.355 Q 52.949 1.982 53.059 1.67 A 2.707 2.707 0 0 1 53.19 1.359 Q 53.532 0.675 54.207 0.338 A 2.976 2.976 0 0 1 54.913 0.095 Q 55.244 0.024 55.628 0.006 A 5.638 5.638 0 0 1 55.89 0 A 7.312 7.312 0 0 1 56.275 0.011 A 8.719 8.719 0 0 1 56.52 0.027 A 6.712 6.712 0 0 1 56.98 0.08 A 5.763 5.763 0 0 1 57.15 0.108 L 57.15 0.72 Q 56.835 0.657 56.511 0.626 Q 56.187 0.594 55.854 0.594 A 4.073 4.073 0 0 0 55.184 0.645 Q 54.828 0.705 54.544 0.833 A 1.811 1.811 0 0 0 54.063 1.148 A 1.587 1.587 0 0 0 53.673 1.73 Q 53.473 2.22 53.461 2.96 A 5.925 5.925 0 0 0 53.46 3.06 L 53.46 14.724 Z M 59.247 14.724 L 58.635 14.724 L 58.635 3.087 A 5.25 5.25 0 0 1 58.683 2.355 Q 58.736 1.982 58.846 1.67 A 2.707 2.707 0 0 1 58.977 1.359 Q 59.319 0.675 59.994 0.338 A 2.976 2.976 0 0 1 60.7 0.095 Q 61.031 0.024 61.415 0.006 A 5.638 5.638 0 0 1 61.677 0 A 7.312 7.312 0 0 1 62.062 0.011 A 8.719 8.719 0 0 1 62.307 0.027 A 6.712 6.712 0 0 1 62.767 0.08 A 5.763 5.763 0 0 1 62.937 0.108 L 62.937 0.72 Q 62.622 0.657 62.298 0.626 Q 61.974 0.594 61.641 0.594 A 4.073 4.073 0 0 0 60.971 0.645 Q 60.615 0.705 60.331 0.833 A 1.811 1.811 0 0 0 59.85 1.148 A 1.587 1.587 0 0 0 59.46 1.73 Q 59.26 2.22 59.248 2.96 A 5.925 5.925 0 0 0 59.247 3.06 L 59.247 14.724 Z M 44.577 14.283 A 5.084 5.084 0 0 0 45.82 14.137 A 4.147 4.147 0 0 0 46.903 13.698 A 3.301 3.301 0 0 0 47.915 12.764 Q 48.2 12.371 48.42 11.864 A 5.957 5.957 0 0 0 48.465 11.759 Q 48.844 10.838 48.966 9.479 A 15.532 15.532 0 0 0 49.023 8.1 Q 49.023 6.59 48.79 5.484 A 6.361 6.361 0 0 0 48.465 4.392 A 5.045 5.045 0 0 0 47.984 3.475 Q 47.531 2.803 46.904 2.435 A 4.27 4.27 0 0 0 45.257 1.887 A 5.42 5.42 0 0 0 44.577 1.845 A 5.07 5.07 0 0 0 43.335 1.991 A 4.114 4.114 0 0 0 42.255 2.43 A 3.317 3.317 0 0 0 41.246 3.364 Q 40.931 3.798 40.694 4.37 Q 40.311 5.29 40.189 6.649 A 15.408 15.408 0 0 0 40.131 8.028 A 15.946 15.946 0 0 0 40.186 9.396 Q 40.244 10.074 40.365 10.644 A 6.323 6.323 0 0 0 40.693 11.736 A 5.105 5.105 0 0 0 41.175 12.65 Q 41.544 13.198 42.026 13.544 A 3.036 3.036 0 0 0 42.255 13.694 Q 43.254 14.283 44.577 14.283 Z M 27.621 14.724 L 27.009 14.724 L 27.009 0.18 L 27.621 0.18 L 27.621 14.724 Z M 34.227 14.724 L 33.462 14.724 L 29.286 9.756 L 33.183 5.004 L 33.939 5.004 L 29.979 9.855 L 29.979 9.657 L 34.227 14.724 Z M 64.89 14.724 L 64.278 14.724 L 64.278 5.004 L 64.89 5.004 L 64.89 14.724 Z M 56.799 5.58 L 50.868 5.58 L 50.868 5.004 L 56.799 5.004 L 56.799 5.58 Z M 62.586 5.58 L 56.655 5.58 L 56.655 5.004 L 62.586 5.004 L 62.586 5.58 Z M 29.673 10.044 L 27.477 10.044 L 27.477 9.468 L 29.673 9.468 L 29.673 10.044 Z M 64.389 2.455 A 0.632 0.632 0 0 0 64.584 2.484 A 0.719 0.719 0 0 0 64.651 2.481 A 0.535 0.535 0 0 0 64.984 2.331 Q 65.142 2.178 65.142 1.926 A 0.75 0.75 0 0 0 65.132 1.801 A 0.528 0.528 0 0 0 64.985 1.508 A 0.519 0.519 0 0 0 64.78 1.38 A 0.614 0.614 0 0 0 64.584 1.35 Q 64.341 1.35 64.184 1.508 A 0.517 0.517 0 0 0 64.049 1.741 A 0.701 0.701 0 0 0 64.026 1.926 A 0.717 0.717 0 0 0 64.033 2.026 A 0.511 0.511 0 0 0 64.183 2.331 A 0.521 0.521 0 0 0 64.389 2.455 Z"
            vector-effect="non-scaling-stroke" />
    </g>
</svg>